<?xml version="1.0" encoding="utf-8"?>
<!-- Generator: Adobe Illustrator 16.0.0, SVG Export Plug-In . SVG Version: 6.00 Build 0)  -->
<!DOCTYPE svg PUBLIC "-//W3C//DTD SVG 1.1//EN" "http://www.w3.org/Graphics/SVG/1.1/DTD/svg11.dtd">
<svg version="1.1" id="Layer_1" xmlns="http://www.w3.org/2000/svg" xmlns:xlink="http://www.w3.org/1999/xlink" x="0px" y="0px"
	 width="112.025px" height="13.854px" viewBox="0 0 112.025 13.854" enable-background="new 0 0 112.025 13.854"
	 xml:space="preserve">
<g>
	<path fill-rule="evenodd" clip-rule="evenodd" fill="#DEDEDF" d="M69.352,3.294c2.042,0,2.68,1.339,2.828,2.258h5.57
		c-0.692-5.116-5.214-5.511-8.398-5.511c-3.199,0-8.751,0.214-8.751,6.902c0,6.692,5.552,6.91,8.751,6.91
		c3.221,0,4.86-0.528,6.15-1.468c1.312-0.94,1.911-2.314,2.248-4.012h-5.57c-0.43,1.553-1.421,2.222-3.09,2.222
		c-1.927,0-3.256-1.03-3.256-3.652C65.834,4.322,67.199,3.294,69.352,3.294L69.352,3.294z"/>
	<path fill-rule="evenodd" clip-rule="evenodd" fill="#DEDEDF" d="M36.054,0.041h-8.455v13.813h3.663V9.558h4.832
		c4.008,0,5.45-2.051,5.45-4.699C41.544,1.782,40.061,0.041,36.054,0.041L36.054,0.041z M34.908,6.192L34.908,6.192h-3.646V3.291
		h3.646c1.426,0,1.965,0.426,1.965,1.47C36.873,5.769,36.333,6.192,34.908,6.192L34.908,6.192z"/>
	<path fill-rule="evenodd" clip-rule="evenodd" fill="#DEDEDF" d="M52.146,0.307c-0.083-0.154-0.238-0.261-0.424-0.27V0.032h-4.243
		c-0.285,0-0.518,0.231-0.518,0.519c0,0.094,0.027,0.18,0.07,0.255L47.03,0.809l2.878,5.08c0.11,0.216,0.097,0.465-0.06,0.619
		c-0.072,0.076-0.171,0.115-0.272,0.127h-4.378c-0.2,0-0.375,0.118-0.461,0.288l-3.961,6.932h5.445l3.657-6.456
		c0.015-0.021,0.034-0.051,0.052-0.072c0.198-0.209,0.592-0.231,0.82,0.075c0.028,0.038,0.057,0.086,0.083,0.12l3.59,6.333h5.409
		L52.151,0.3L52.146,0.307L52.146,0.307z"/>
	<path fill-rule="evenodd" clip-rule="evenodd" fill="#DEDEDF" d="M104.344,0.3l-0.005,0.007c-0.083-0.154-0.237-0.259-0.424-0.27
		V0.032h-4.242c-0.285,0-0.519,0.231-0.519,0.519c0,0.094,0.027,0.18,0.071,0.255l-0.002,0.003l2.877,5.08
		c0.11,0.216,0.098,0.465-0.059,0.619c-0.072,0.076-0.17,0.115-0.272,0.127h-4.377c-0.202,0-0.376,0.118-0.461,0.288l-3.962,6.932
		h5.443l3.657-6.456c0.018-0.021,0.035-0.051,0.054-0.072c0.197-0.209,0.593-0.231,0.82,0.075c0.028,0.038,0.057,0.086,0.082,0.12
		l3.589,6.333h5.41L104.344,0.3L104.344,0.3z"/>
	<path fill-rule="evenodd" clip-rule="evenodd" fill="#DEDEDF" d="M93.474,0.519L93.474,0.519C93.474,0.23,93.241,0,92.955,0h-0.001
		H80.096v0.001c-0.285,0.003-0.512,0.23-0.515,0.515H79.58v2.985h4.391v0.005C84.236,3.52,84.446,3.73,84.458,4v9.886h4.143V4.002
		c0,0,0,0,0.001,0c0.006-0.272,0.219-0.485,0.485-0.501h4.387V0.519L93.474,0.519z"/>
	<path fill-rule="evenodd" clip-rule="evenodd" fill="#DEDEDF" d="M23.771,0.032L23.771,0.032h-5.054
		c-0.01-0.001-0.02-0.007-0.029-0.007c-0.227,0-0.413,0.145-0.485,0.344l-2.363,6.95l0,0c-0.039,0.116-0.147,0.201-0.276,0.201
		c-0.114,0-0.208-0.066-0.256-0.161L12.936,0.38c-0.071-0.201-0.258-0.349-0.483-0.349c-0.002,0-0.003,0.001-0.005,0.001H8.159
		H7.365h-0.52v0.486v0.829v12.506h3.529V5.364c0-0.141,0.113-0.252,0.252-0.252c0.104,0,0.191,0.063,0.229,0.152l2.952,8.589h3.521
		l2.954-8.595c0.041-0.085,0.124-0.146,0.226-0.146c0.14,0,0.252,0.111,0.252,0.252h0.001v8.489h3.529V0.509h-0.008
		C24.259,0.244,24.042,0.032,23.771,0.032L23.771,0.032z"/>
	<path fill-rule="evenodd" clip-rule="evenodd" fill="#DEDEDF" d="M0.006,0.562L0,0.563v13.291h3.481V0.066H0.518
		C0.239,0.066,0.018,0.286,0.006,0.562L0.006,0.562z"/>
</g>
</svg>
